HIERARCHY
ROOT joint_Root
{
	OFFSET 0.0 0.0 0.0
	CHANNELS 6 Xposition Yposition Zposition Zrotation Xrotation Yrotation 
	JOINT Hips
	{
		OFFSET 4.5925 91.4895 -427.239
		CHANNELS 6 Xposition Yposition Zposition Zrotation Xrotation Yrotation 
		JOINT Spine
		{
			OFFSET 15.7357 0.0 0.0
			CHANNELS 6 Xposition Yposition Zposition Zrotation Xrotation Yrotation 
			JOINT Chest
			{
				OFFSET 8.98455 -0.406207 0.0
				CHANNELS 6 Xposition Yposition Zposition Zrotation Xrotation Yrotation 
				JOINT Neck
				{
					OFFSET 16.3773 0.0 0.0
					CHANNELS 6 Xposition Yposition Zposition Zrotation Xrotation Yrotation 
					JOINT Head
					{
						OFFSET 6.45672 0.0 0.0
						CHANNELS 6 Xposition Yposition Zposition Zrotation Xrotation Yrotation 
						End Site
						{
							OFFSET 0.0 0.0 0.0
						}
					}
				}
				JOINT Shoulder_L
				{
					OFFSET 12.9942 -0.242716 4.98039
					CHANNELS 6 Xposition Yposition Zposition Zrotation Xrotation Yrotation 
					JOINT UpperArm_L
					{
						OFFSET 5.34809 0.0 0.0
						CHANNELS 6 Xposition Yposition Zposition Zrotation Xrotation Yrotation 
						JOINT LowerArm_L
						{
							OFFSET 24.3286 1.87007e-05 0.0
							CHANNELS 6 Xposition Yposition Zposition Zrotation Xrotation Yrotation 
							JOINT Hand_L
							{
								OFFSET 22.2916 0.0 0.0
								CHANNELS 6 Xposition Yposition Zposition Zrotation Xrotation Yrotation 
								End Site
								{
									OFFSET 0.0 0.0 0.0
								}
							}
						}
					}
				}
				JOINT Shoulder_R
				{
					OFFSET 12.9945 -0.242716 -4.98039
					CHANNELS 6 Xposition Yposition Zposition Zrotation Xrotation Yrotation 
					JOINT UpperArm_R
					{
						OFFSET -5.34813 0.0 0.0
						CHANNELS 6 Xposition Yposition Zposition Zrotation Xrotation Yrotation 
						JOINT LowerArm_R
						{
							OFFSET -24.3289 0.000322201 0.0
							CHANNELS 6 Xposition Yposition Zposition Zrotation Xrotation Yrotation 
							JOINT Hand_R
							{
								OFFSET -22.2915 -0.000108084 0.0
								CHANNELS 6 Xposition Yposition Zposition Zrotation Xrotation Yrotation 
								End Site
								{
									OFFSET 0.0 0.0 0.0
								}
							}
						}
					}
				}
			}
		}
		JOINT UpperLeg_L
		{
			OFFSET -2.19248 -6.46944 0.0
			CHANNELS 6 Xposition Yposition Zposition Zrotation Xrotation Yrotation 
			JOINT LowerLeg_L
			{
				OFFSET 39.0811 0.0 -1.23785e-05
				CHANNELS 6 Xposition Yposition Zposition Zrotation Xrotation Yrotation 
				JOINT Foot_L
				{
					OFFSET 40.9854 0.0 -1.26872e-05
					CHANNELS 6 Xposition Yposition Zposition Zrotation Xrotation Yrotation 
					JOINT Toes_L
					{
						OFFSET 11.7543 0.0 0.0
						CHANNELS 6 Xposition Yposition Zposition Zrotation Xrotation Yrotation 
						End Site
						{
							OFFSET 0.0 0.0 0.0
						}
					}
				}
			}
		}
		JOINT UpperLeg_R
		{
			OFFSET -2.19251 6.46944 0.0
			CHANNELS 6 Xposition Yposition Zposition Zrotation Xrotation Yrotation 
			JOINT LowerLeg_R
			{
				OFFSET -39.0811 -0.00228153 -0.0401928
				CHANNELS 6 Xposition Yposition Zposition Zrotation Xrotation Yrotation 
				JOINT Foot_R
				{
					OFFSET -40.9854 0.0 0.0
					CHANNELS 6 Xposition Yposition Zposition Zrotation Xrotation Yrotation 
					JOINT Toes_R
					{
						OFFSET -11.7543 0.0 0.0
						CHANNELS 6 Xposition Yposition Zposition Zrotation Xrotation Yrotation 
						End Site
						{
							OFFSET 0.0 0.0 0.0
						}
					}
				}
			}
		}
	}
}
MOTION
Frames:	5
Frame Time:	0.0333333
0.000000 0.000000 0.000000 0.000000 0.000000 -0.000000 -10.023400 89.575800 -1.097740 85.240300 -6.484940 9.949850 15.735700 0.000005 -0.000001 69.890700 83.067900 -66.373700 8.984550 -0.406207 -0.000000 5.426350 -4.827610 7.258330 16.377300 -0.000001 -0.000001 17.887100 -6.357560 1.081620 6.456720 -0.000001 -0.000000 11.999200 -6.962490 11.701000 12.994200 -0.242716 4.980390 -85.595600 -9.276640 -64.461200 5.348090 -0.000007 -0.000001 -39.820900 -46.566100 -96.141400 24.328600 0.000019 0.000005 9.278300 9.324500 -45.236000 22.291600 -0.000001 0.000005 19.104400 5.238080 1.745680 12.994500 -0.242716 -4.980390 87.958000 8.188980 -75.946500 -5.348130 -0.000001 -0.000004 -62.278400 26.417500 -11.423200 -24.328900 0.000322 -0.000009 0.658122 1.785740 -20.265300 -22.291500 -0.000108 -0.000004 15.248000 5.383090 -2.395780 -2.192480 -6.469440 -0.000000 -163.102000 -11.941800 -1.753170 39.081100 -0.000007 -0.000012 -0.338062 0.479080 35.209400 40.985400 -0.000006 -0.000013 -7.356550 4.305480 -70.907500 11.754300 -0.000000 0.000003 -0.000054 -0.000610 -16.601200 -2.192510 6.469440 -0.000001 -175.445000 24.482800 -178.772000 -39.081100 -0.002282 -0.040193 -0.128994 0.217672 31.290000 -40.985400 0.000008 0.000006 11.229800 13.425000 -74.106400 -11.754300 -0.000006 -0.000006 -0.001784 -0.025984 -17.629700
0.000000 0.000000 0.000000 0.000000 0.000000 -0.000000 -10.073000 89.566900 -1.239100 85.171800 -6.895280 9.946090 15.735700 0.000005 -0.000001 69.761000 83.075800 -66.237500 8.984550 -0.406207 -0.000000 5.401790 -4.852480 7.271560 16.377300 -0.000001 -0.000001 18.030500 -6.250800 1.000290 6.456720 -0.000001 -0.000000 12.070800 -6.883680 11.441200 12.994200 -0.242716 4.980390 -85.536400 -9.364530 -64.370400 5.348090 -0.000007 -0.000001 -39.850700 -46.343000 -97.836200 24.328600 0.000019 0.000005 9.546620 9.538410 -45.423800 22.291600 -0.000001 0.000005 18.933900 5.239640 1.705100 12.994500 -0.242716 -4.980390 87.998200 8.130840 -76.118500 -5.348130 -0.000001 -0.000004 -62.454800 27.332900 -12.389300 -24.328900 0.000322 -0.000009 0.590663 1.516740 -21.315600 -22.291500 -0.000108 -0.000004 15.275200 5.387300 -2.529190 -2.192480 -6.469440 -0.000000 -162.949000 -12.148200 -1.748180 39.081100 -0.000007 -0.000012 -0.340781 0.481764 35.274800 40.985400 -0.000006 -0.000013 -7.432700 4.180780 -70.880300 11.754300 -0.000000 0.000003 -0.000059 -0.000654 -16.602900 -2.192510 6.469440 -0.000001 -175.259000 24.242700 -178.893000 -39.081100 -0.002282 -0.040193 -0.127514 0.214776 31.344200 -40.985400 0.000008 0.000006 11.335800 13.514100 -74.042800 -11.754300 -0.000006 -0.000006 -0.001831 -0.026580 -17.653900
0.000000 0.000000 0.000000 0.000000 0.000000 -0.000000 -10.115100 89.553200 -1.374260 85.135300 -7.375820 9.965410 15.735700 0.000005 -0.000001 69.854000 83.058100 -66.324500 8.984550 -0.406207 -0.000000 5.442850 -4.842370 7.284800 16.377300 -0.000001 -0.000001 18.244500 -6.230110 0.946464 6.456720 -0.000001 -0.000000 12.288300 -6.879010 11.434900 12.994200 -0.242716 4.980390 -85.487700 -9.441890 -64.309400 5.348090 -0.000007 -0.000001 -39.742900 -46.327100 -98.830400 24.328600 0.000019 0.000005 9.447350 9.458630 -45.357200 22.291600 -0.000001 0.000005 18.967800 5.247280 1.504530 12.994500 -0.242716 -4.980390 88.026300 8.128010 -76.301700 -5.348130 -0.000001 -0.000004 -62.622300 28.204600 -13.153500 -24.328900 0.000322 -0.000009 0.548654 1.337870 -22.342800 -22.291500 -0.000108 -0.000004 15.385000 5.389150 -2.588180 -2.192480 -6.469440 -0.000000 -162.819000 -12.417300 -1.689780 39.081100 -0.000007 -0.000012 -0.339954 0.479261 35.349900 40.985400 -0.000006 -0.000013 -7.513900 4.011600 -70.875000 11.754300 -0.000000 0.000003 -0.000060 -0.000667 -16.603400 -2.192510 6.469440 -0.000001 -175.091000 23.880400 -179.011000 -39.081100 -0.002282 -0.040193 -0.121696 0.204436 31.442100 -40.985400 0.000008 0.000006 11.437400 13.582000 -73.996100 -11.754300 -0.000006 -0.000006 -0.001867 -0.027040 -17.672600
0.000000 0.000000 0.000000 0.000000 0.000000 -0.000000 -10.158300 89.540700 -1.501720 85.096700 -7.837610 9.981030 15.735700 0.000005 -0.000001 69.906700 83.017100 -66.345100 8.984550 -0.406207 -0.000000 5.526510 -4.856280 7.353370 16.377300 -0.000001 -0.000001 18.492400 -6.259970 0.958030 6.456720 -0.000001 -0.000000 12.573600 -6.903150 11.513700 12.994200 -0.242716 4.980390 -85.460500 -9.469030 -64.237500 5.348090 -0.000007 -0.000001 -39.582500 -46.450900 -99.126900 24.328600 0.000019 0.000005 9.319190 9.436520 -45.025200 22.291600 -0.000001 0.000005 19.017300 5.252150 1.375900 12.994500 -0.242716 -4.980390 88.056700 8.085360 -76.437100 -5.348130 -0.000001 -0.000004 -62.891100 28.875800 -13.812300 -24.328900 0.000322 -0.000009 0.519198 1.222490 -23.055000 -22.291500 -0.000108 -0.000004 15.363100 5.395410 -2.789020 -2.192480 -6.469440 -0.000000 -162.688000 -12.630300 -1.632110 39.081100 -0.000007 -0.000012 -0.345925 0.486646 35.407300 40.985400 -0.000006 -0.000013 -7.603380 3.841640 -70.866200 11.754300 -0.000000 0.000003 -0.000059 -0.000651 -16.602800 -2.192510 6.469440 -0.000001 -174.928000 23.568200 -179.113000 -39.081100 -0.002282 -0.040193 -0.115463 0.193641 31.521200 -40.985400 0.000008 0.000006 11.539100 13.648200 -73.950100 -11.754300 -0.000006 -0.000006 -0.001966 -0.028289 -17.723400
0.000000 0.000000 0.000000 0.000000 0.000000 -0.000000 -10.195000 89.529400 -1.618010 85.067600 -8.235250 9.997990 15.735700 0.000005 -0.000001 69.936200 82.961200 -66.326400 8.984550 -0.406207 -0.000000 5.637660 -4.884890 7.455710 16.377300 -0.000001 -0.000001 18.754800 -6.304800 1.081560 6.456720 -0.000001 -0.000000 12.840200 -6.941120 11.613800 12.994200 -0.242716 4.980390 -85.446500 -9.497340 -64.234700 5.348090 -0.000007 -0.000001 -39.209800 -46.827400 -98.548800 24.328600 0.000019 0.000005 9.353070 9.661300 -44.463100 22.291600 -0.000001 0.000005 19.011900 5.256120 1.270460 12.994500 -0.242716 -4.980390 88.058300 8.096580 -76.465900 -5.348130 -0.000001 -0.000004 -63.126600 29.465900 -14.176200 -24.328900 0.000322 -0.000009 0.509994 1.160510 -23.770800 -22.291500 -0.000108 -0.000004 15.444000 5.396940 -2.838400 -2.192480 -6.469440 -0.000000 -162.587000 -12.813900 -1.581940 39.081100 -0.000007 -0.000012 -0.346199 0.486021 35.463500 40.985400 -0.000006 -0.000013 -7.680540 3.681740 -70.862400 11.754300 -0.000000 0.000003 -0.000060 -0.000665 -16.603300 -2.192510 6.469440 -0.000001 -174.798000 23.307600 -179.204000 -39.081100 -0.002282 -0.040193 -0.112179 0.187718 31.598400 -40.985400 0.000008 0.000006 11.640400 13.740100 -73.914500 -11.754300 -0.000006 -0.000006 -0.002019 -0.028950 -17.750300
